<svg height="1em" style="flex:none;line-height:1" viewBox="0 0 100 100" width="1em" xmlns="http://www.w3.org/2000/svg"><title>QiHanAI</title><rect width="100" height="100" rx="16" fill="#f0f6fb"/><g opacity="0.05" fill="#1a1a1a"><polygon points="50,50 50,5 9.1,27.5"/><polygon points="50,50 9.1,27.5 9.1,72.5"/><polygon points="50,50 9.1,72.5 50,95"/><polygon points="50,50 50,95 90.9,72.5"/></g><g fill="#2b98c9"><polygon points="50,50 90.9,27.5 50,5"/><polygon points="50,50 90.9,72.5 90.9,27.5"/></g><g fill="none" stroke="#1f2937" stroke-width="7" stroke-linejoin="round"><polygon points="50,5 90.9,27.5 90.9,72.5 50,95 9.1,72.5 9.1,27.5"/><line x1="50" y1="50" x2="50" y2="5"/><line x1="50" y1="50" x2="90.9" y2="27.5"/><line x1="50" y1="50" x2="90.9" y2="72.5"/><line x1="50" y1="50" x2="50" y2="95"/><line x1="50" y1="50" x2="9.1" y2="72.5"/><line x1="50" y1="50" x2="9.1" y2="27.5"/></g></svg>
